<?xml version="1.0" standalone="no"?>
<!DOCTYPE svg PUBLIC "-//W3C//DTD SVG 20010904//EN"
 "http://www.w3.org/TR/2001/REC-SVG-20010904/DTD/svg10.dtd">
<svg version="1.0" xmlns="http://www.w3.org/2000/svg"
 width="574.000000pt" height="434.000000pt" viewBox="0 0 574.000000 434.000000"
 preserveAspectRatio="xMidYMid meet">

<g transform="translate(0.000000,434.000000) scale(0.100000,-0.100000)"
fill="#000000" stroke="none">
<path d="M1630 4110 c-72 -15 -172 -71 -167 -93 1 -6 -3 -11 -10 -10 -15 3
-64 -67 -86 -125 -26 -66 -23 -188 6 -254 40 -90 156 -202 189 -182 7 4 8 3 4
-4 -5 -8 1 -12 18 -12 14 0 28 -5 31 -11 13 -19 155 -8 219 17 63 26 99 51 90
65 -3 5 1 7 8 4 17 -6 77 71 102 132 28 68 26 192 -3 258 -40 92 -126 175
-211 204 -44 15 -144 21 -190 11z m189 -87 c24 -12 48 -20 53 -17 5 3 7 2 6
-3 -1 -4 15 -26 35 -48 21 -21 43 -54 49 -72 7 -18 15 -33 19 -33 3 0 6 -37 5
-82 -1 -72 -5 -90 -31 -136 -16 -29 -45 -67 -64 -85 -20 -17 -36 -34 -36 -38
0 -4 -4 -11 -9 -16 -6 -5 -6 -2 -1 6 6 11 4 13 -11 6 -101 -41 -172 -42 -254
0 -101 51 -156 134 -164 249 -4 56 -1 72 24 123 60 121 145 175 270 170 43 -2
80 -10 109 -24z"/>
<path d="M4413 3931 c-34 -10 -73 -25 -87 -35 -14 -9 -26 -14 -26 -11 0 3 -27
-13 -60 -35 -33 -22 -60 -46 -60 -52 0 -14 -35 -6 -140 31 -159 56 -275 74
-470 75 -129 0 -199 -5 -265 -18 -132 -26 -288 -79 -399 -135 -87 -45 -126
-54 -126 -31 0 13 -95 49 -136 51 -174 9 -305 -108 -306 -274 0 -60 25 -147
42 -147 19 0 0 -50 -45 -119 -62 -95 -126 -233 -160 -346 -16 -49 -29 -92 -31
-93 -1 -2 -32 10 -68 28 -141 67 -283 100 -431 100 -90 0 -226 -21 -294 -45
l-43 -15 -52 46 c-60 54 -154 100 -228 112 -92 14 -231 -10 -304 -53 -79 -46
-183 -162 -168 -186 4 -7 3 -9 -3 -6 -12 8 -39 -57 -55 -135 -17 -82 1 -200
43 -278 37 -70 97 -143 110 -134 5 3 8 1 7 -4 -2 -5 7 -18 20 -28 23 -19 23
-21 11 -88 -7 -42 -10 -119 -6 -200 l5 -131 -35 -53 c-56 -85 -112 -215 -140
-320 -21 -82 -25 -120 -25 -242 0 -123 4 -160 25 -242 99 -379 370 -646 761
-751 81 -21 82 -21 1531 -25 1514 -3 1557 -2 1708 40 145 40 307 130 416 232
67 63 158 176 190 237 l24 45 66 0 c82 0 143 26 205 86 147 142 109 379 -76
474 -26 13 -56 24 -67 24 -16 0 -22 11 -31 58 -40 202 -124 371 -254 510 l-59
63 31 102 c51 164 65 263 65 442 0 134 -5 181 -27 288 l-26 128 49 51 c27 27
55 62 62 77 8 14 17 28 21 31 14 11 59 123 73 184 28 117 14 260 -36 377 -12
27 -26 46 -32 42 -5 -3 -7 -1 -3 5 10 16 -48 95 -115 156 -70 63 -171 119
-255 141 -80 21 -241 19 -321 -4z m317 -68 c136 -38 258 -137 324 -262 49 -93
67 -169 65 -271 -3 -135 -36 -224 -128 -339 -28 -35 -48 -68 -44 -75 5 -7 2
-7 -8 1 -12 10 -21 6 -47 -18 -18 -17 -32 -28 -32 -25 0 3 -15 -3 -34 -14 -92
-51 -250 -72 -359 -46 -189 44 -320 157 -394 338 -48 120 -41 306 17 425 10
21 16 42 13 47 -4 5 -1 6 5 2 6 -3 13 3 17 13 7 23 132 151 146 151 6 0 7 5 3
12 -5 7 -3 8 6 3 7 -4 15 -3 19 2 10 16 134 62 193 72 65 12 165 5 238 -16z
m-875 -62 c101 -23 235 -69 235 -81 0 -4 -16 -33 -35 -65 -61 -102 -79 -173
-80 -315 0 -109 3 -133 25 -190 67 -178 187 -304 353 -372 150 -61 334 -57
477 10 36 17 66 29 67 28 10 -10 43 -209 48 -291 11 -164 -20 -377 -79 -541
-14 -39 -26 -78 -26 -86 0 -8 16 -30 36 -49 133 -126 230 -294 274 -474 24
-98 24 -95 0 -95 -52 0 -190 -96 -174 -122 4 -6 3 -8 -3 -5 -5 3 -21 -17 -34
-46 -18 -40 -24 -68 -23 -122 1 -88 31 -153 103 -217 l50 -45 -26 -44 c-142
-241 -399 -409 -688 -449 -57 -8 -505 -10 -1540 -8 l-1460 3 -77 22 c-290 82
-508 264 -632 527 -83 175 -105 429 -54 616 34 122 64 191 126 283 l50 74 -5
154 c-5 164 4 237 28 230 101 -29 154 -34 222 -23 180 31 319 148 378 319 27
78 26 204 -2 281 -11 31 -23 64 -26 73 -12 39 268 73 417 50 105 -16 212 -54
305 -106 43 -25 84 -45 90 -45 22 0 32 22 59 122 31 117 69 211 138 335 70
126 75 130 130 102 58 -31 163 -32 228 -2 56 25 113 82 141 141 27 55 30 158
5 216 -19 45 -23 40 75 91 120 62 291 113 464 139 74 11 352 -4 440 -23z
m-1146 -115 c35 -18 79 -63 99 -101 24 -45 22 -141 -5 -192 -12 -22 -19 -44
-15 -49 4 -4 2 -4 -5 0 -6 3 -15 1 -19 -5 -13 -21 -109 -59 -150 -59 -24 0
-61 10 -90 25 -57 29 -58 29 -48 13 4 -8 3 -10 -2 -5 -5 5 -9 12 -9 15 0 4
-10 23 -22 42 -33 53 -44 115 -31 174 27 126 183 200 297 142z m-293 -318 c3
-4 -1 -5 -10 -4 -8 1 -18 5 -22 8 -3 4 1 5 10 4 8 -1 18 -5 22 -8z m-1383
-423 c93 -20 178 -73 231 -145 60 -81 79 -150 74 -259 -3 -75 -9 -97 -37 -152
-39 -76 -51 -90 -116 -139 -122 -90 -303 -102 -422 -29 -18 11 -33 18 -33 15
0 -20 -117 126 -137 172 -37 82 -43 199 -14 276 52 139 154 233 285 261 79 17
88 17 169 0z m4280 -1752 c50 -25 96 -83 113 -140 27 -94 -10 -197 -91 -251
-68 -45 -176 -48 -240 -6 -13 9 -29 13 -34 9 -7 -3 -8 0 -5 9 3 9 1 16 -5 16
-5 0 -23 21 -38 48 -36 61 -39 155 -6 217 16 31 93 114 93 100 0 -1 17 4 38
11 45 17 130 11 175 -13z"/>
<path d="M3909 1903 c-64 -33 -102 -84 -124 -169 -21 -80 -21 -348 0 -428 34
-130 120 -198 253 -198 119 -1 201 52 244 160 21 52 23 72 23 247 0 218 -11
268 -74 338 -51 57 -100 77 -192 77 -63 0 -85 -5 -130 -27z m175 -107 c56 -23
66 -66 66 -279 0 -170 -2 -186 -22 -227 -26 -51 -66 -69 -119 -54 -47 13 -69
50 -81 135 -12 89 -5 321 12 367 13 35 61 72 93 72 10 0 33 -6 51 -14z"/>
<path d="M1400 1896 c0 -14 0 -194 0 -398 l-1 -373 81 -3 80 -3 0 141 0 140
89 0 c155 0 236 25 301 92 42 42 60 93 60 165 0 104 -50 187 -138 230 -56 27
-61 28 -264 31 l-208 3 0 -25z m388 -126 c64 -39 80 -144 31 -196 -30 -32 -77
-44 -176 -44 l-83 0 0 130 0 130 98 0 c80 0 103 -4 130 -20z"/>
<path d="M2130 1520 l0 -400 87 0 86 0 -7 173 c-3 94 -8 228 -11 297 -4 90 -2
118 5 100 6 -14 54 -146 108 -295 l98 -270 59 0 60 0 102 280 c56 154 104 285
107 290 2 6 2 -122 -2 -282 l-5 -293 81 0 82 0 0 400 0 400 -108 0 -109 0 -97
-278 c-53 -153 -101 -283 -105 -290 -4 -7 -49 106 -110 278 l-103 290 -109 0
-109 0 0 -400z"/>
<path d="M3308 1862 l-158 -57 0 -62 c0 -35 3 -63 8 -63 4 0 42 11 85 25 43
14 82 25 87 25 6 0 10 -116 10 -305 l0 -305 80 0 80 0 0 400 c0 375 -1 400
-17 399 -10 0 -89 -26 -175 -57z"/>
<path d="M862 3695 c-18 -8 -31 -19 -27 -25 3 -5 0 -7 -8 -4 -9 3 -27 -10 -46
-33 -56 -68 -66 -154 -26 -232 49 -97 141 -144 239 -122 57 13 100 37 91 52
-3 5 0 6 8 3 14 -5 56 50 61 79 1 6 6 18 10 26 16 25 8 108 -13 149 -22 43
-80 98 -118 113 -36 14 -133 10 -171 -6z m175 -76 c69 -42 88 -149 38 -215
-100 -131 -294 -45 -272 120 3 20 10 43 17 51 6 8 8 20 4 26 -4 8 -3 9 5 5 15
-10 43 13 34 27 -3 5 -2 7 4 4 5 -3 23 -2 39 3 38 11 91 2 131 -21z"/>
<path d="M5348 2489 c-10 -5 -18 -7 -18 -4 0 14 -60 -27 -93 -64 -42 -47 -61
-108 -53 -170 7 -50 43 -114 58 -105 6 4 8 3 5 -3 -7 -10 18 -34 66 -64 41
-24 135 -26 180 -2 142 73 175 257 65 360 -54 51 -165 78 -210 52z m119 -71
c15 -6 33 -10 38 -9 6 2 7 -1 2 -5 -4 -4 5 -20 19 -35 22 -23 27 -38 28 -81 1
-69 -29 -119 -87 -147 -35 -17 -50 -18 -91 -10 -28 5 -53 14 -57 20 -4 7 -12
8 -19 4 -8 -5 -11 -4 -7 2 4 6 -3 23 -15 38 -12 16 -23 47 -26 75 -4 39 0 54
24 90 43 64 120 88 191 58z"/>
</g>
</svg>
